<svg xmlns="http://www.w3.org/2000/svg" xmlns:xlink="http://www.w3.org/1999/xlink" viewBox="0 0 312.03 74.09"><defs><style>.cls-1{fill:#fff;}.cls-2{fill:#f51439;}.cls-3{fill:#f7234c;}.cls-4{fill:#f93262;}.cls-5{fill:url(#linear-gradient);}</style><linearGradient id="linear-gradient" x1="16.79" y1="33.27" x2="55.47" y2="33.27" gradientUnits="userSpaceOnUse"><stop offset="0" stop-color="#e6bed0"/><stop offset="0.22" stop-color="#e8c4d5"/><stop offset="0.53" stop-color="#efd6e1"/><stop offset="0.88" stop-color="#faf3f6"/><stop offset="1" stop-color="#fff"/></linearGradient></defs><g id="Layer_2" data-name="Layer 2"><g id="Layer_1-2" data-name="Layer 1"><path class="cls-1" d="M88.12,20.34c7.37,0,11.85,3.53,11.85,9.42a8.06,8.06,0,0,1-4.9,7.85c-.69.21-.74.68,0,.89a8.59,8.59,0,0,1,6.11,8.69c0,6.27-4.53,10-12.22,10H74a.53.53,0,0,1-.58-.58V20.92a.53.53,0,0,1,.58-.58Zm-8.8,15.27h7.27c4.84,0,7.32-2,7.32-5.27,0-2.89-2.21-4.68-5.79-4.68h-8.8Zm0,16.22h9.59c3.84,0,6.16-1.9,6.16-5.16,0-3.85-2.69-5.8-8.06-5.8H79.32Z"/><path class="cls-1" d="M114.34,51c0,.9.37,1.42,1.06,1.42h.37c.36,0,.57,0,.73.32l1.58,3.74a.55.55,0,0,1-.26.79,6.32,6.32,0,0,1-2.42.47c-4.32,0-6.9-2.47-6.9-6.74V20a.53.53,0,0,1,.58-.58h4.68a.53.53,0,0,1,.58.58Z"/><path class="cls-1" d="M147,44.35c0,8.21-4.63,13.37-12.11,13.37s-12.16-5.16-12.16-13.37,4.63-13.27,12.16-13.27S147,36.24,147,44.35Zm-18.48,0c0,5,2.37,8,6.37,8s6.32-3,6.32-8-2.42-8-6.32-8S128.51,39.35,128.51,44.35Z"/><path class="cls-1" d="M170.22,57a19.37,19.37,0,0,1-4.9.68c-8.06,0-12.48-5.16-12.48-13.37s4.37-13.27,12.64-13.27a16.31,16.31,0,0,1,4.53.63l2.26.63a.54.54,0,0,1,.42.74l-1.21,4a.51.51,0,0,1-.68.37L169,36.92a12,12,0,0,0-3.53-.57c-4.69,0-6.85,3-6.85,7.95,0,5.1,2.27,8.1,6.74,8.1a15.91,15.91,0,0,0,3.9-.57L171,51.3a.54.54,0,0,1,.73.37L173,55.62a.53.53,0,0,1-.42.73Z"/><path class="cls-1" d="M202.86,56.46c.27.37.06.68-.42.68h-5.21a.85.85,0,0,1-.74-.36l-3.63-5.85c-1.47-2.21-3-4-5.84-4h-.79v9.68a.53.53,0,0,1-.58.58H181a.53.53,0,0,1-.58-.58V20a.53.53,0,0,1,.58-.58h4.69a.53.53,0,0,1,.58.58V41.61H187c2.58,0,4.1-2.26,5.52-4.32L196,32a.85.85,0,0,1,.74-.36h5.16c.47,0,.63.31.42.68l-4.64,7.48a10.41,10.41,0,0,1-4.58,4.11c-.21.1-.26.31,0,.42a11.36,11.36,0,0,1,4.9,4.26Z"/><path class="cls-1" d="M236.41,25.08a.53.53,0,0,1-.58.58H224.61v30.9a.52.52,0,0,1-.57.58h-4.85a.53.53,0,0,1-.58-.58V25.66H207.45a.53.53,0,0,1-.58-.58V20.92a.53.53,0,0,1,.58-.58h28.38a.53.53,0,0,1,.58.58Z"/><path class="cls-1" d="M250.47,56.56a.53.53,0,0,1-.58.58h-4.68a.53.53,0,0,1-.58-.58V36.82h-2.58a.53.53,0,0,1-.58-.58V32.19a.53.53,0,0,1,.58-.58h7.84a.53.53,0,0,1,.58.58Zm-.05-34.06c0,2.26-1.26,3.58-3.48,3.58a3.25,3.25,0,0,1-3.52-3.58A3.24,3.24,0,0,1,246.94,19,3.2,3.2,0,0,1,250.42,22.5Z"/><path class="cls-1" d="M263.16,34.24c.32.63.64.58,1.21,0a9.45,9.45,0,0,1,7.27-3.21c6,0,9.64,3.74,9.64,10V56.56a.53.53,0,0,1-.58.58H276a.53.53,0,0,1-.58-.58V41.66c0-3.31-1.74-5.31-4.58-5.31-3.9,0-6.16,2.84-6.16,7.95V56.56a.53.53,0,0,1-.58.58h-4.69a.52.52,0,0,1-.57-.58V32.19a.52.52,0,0,1,.57-.58h2.64a.55.55,0,0,1,.63.52Z"/><path class="cls-1" d="M294.6,63.15a19.26,19.26,0,0,0,4.53.58c3.63,0,6.95-1.43,7.9-5.64.16-2.32.21-2.16.26-3.26,0-.37-.26-.63-.74-.16a9.66,9.66,0,0,1-7.26,3c-7,0-11.16-5.16-11.16-13.21,0-8.48,4.58-13.43,12.26-13.43a17.28,17.28,0,0,1,6.48,1.21l4.69,2a.62.62,0,0,1,.47.63V56.93c0,7.8-4.58,12.06-12.64,12.06a23.66,23.66,0,0,1-5.74-.68l-2.58-.74a.55.55,0,0,1-.42-.74l1.21-3.89a.52.52,0,0,1,.69-.37Zm10-25.91a10,10,0,0,0-4.27-.89c-4,0-6.42,2.94-6.42,8,0,4.79,2.16,8,6.05,8s6.22-2.89,6.22-7.95V38Z"/><path class="cls-2" d="M51.93,58.29l-2.55-1.47L45.2,54.41c-1.31-.76-2.61-1.53-3.93-2.27L39,53.46l-3.25,1.88-3.09,1.79L29,59.21a2.35,2.35,0,0,1-1.2.34h0a2.28,2.28,0,0,1-1.26-.39c-.43-.29-.9-.55-1.39-.82l-.71-.4-3.83-2.21c-2.26-1.31-4.59-2.67-6.9-4a2.65,2.65,0,0,1-1.44-2.51c0-5.28,0-9.69,0-14.25a3.26,3.26,0,0,1,1.83-3.15c2.07-1.14,4.15-2.35,6.17-3.53,1.74-1,3.55-2.06,5.35-3.06l.07-.05v-.05c0-1.4,0-2.8,0-4.2v-10l-2.42,1.41-1.67,1-1.88,1.08c-1.54.89-3.14,1.81-4.7,2.73a1.89,1.89,0,0,1-1,.32,1.71,1.71,0,0,1-.85-.22,2,2,0,0,1-.39-.24,2.29,2.29,0,0,1-.25-.43,2.57,2.57,0,0,1-.2-1.19v-2c0-1.94,0-3.95,0-5.94a.75.75,0,0,0,0-.21s-.05-.07-.23-.17C9.38,5.43,7,4,4.68,2.7,3.23,1.85,1.69,1,0,0,0,12.5,0,53.89,0,53.89,0,55.28,0,56.66,0,58l.72.44c.25.16.51.32.78.46.72.4,1.43.82,2.13,1.23l2.06,1.19c1.94,1.08,3.88,2.21,5.77,3.31l2,1.17,7,4.06,4.64,2.68c.29.16.57.34.85.51a11.6,11.6,0,0,0,1.85,1,3.61,3.61,0,0,0,.55-.24c.72-.44,1.46-.85,2.19-1.27l1.53-.87c1.17-.69,2.36-1.37,3.54-2s2.6-1.49,3.9-2.25c1.46-.86,2.94-1.71,4.41-2.56s2.83-1.62,4.23-2.44,2.71-1.57,4.07-2.35l1.37-.79Z"/><path class="cls-3" d="M27.84,59.55a2.28,2.28,0,0,1-1.26-.39c-.43-.29-.9-.55-1.39-.82l-.71-.4-3.83-2.21c-2.26-1.31-4.59-2.67-6.9-4a2.79,2.79,0,0,1-.93-.79L0,58l.72.44c.25.16.51.32.78.46.72.4,1.43.82,2.13,1.23l2.06,1.19c1.94,1.08,3.88,2.21,5.77,3.31l2,1.17,7,4.06,4.64,2.68c.29.16.57.34.85.51a11.6,11.6,0,0,0,1.85,1V59.55Z"/><path class="cls-4" d="M51.93,58.29l-2.55-1.47L45.2,54.41c-1.31-.76-2.61-1.53-3.93-2.27L39,53.46l-3.25,1.88-3.09,1.79L29,59.21a2.35,2.35,0,0,1-1.2.34V74.09a3.61,3.61,0,0,0,.55-.24c.72-.44,1.46-.85,2.19-1.27l1.53-.87c1.17-.69,2.36-1.37,3.54-2s2.6-1.49,3.9-2.25c1.46-.86,2.94-1.71,4.41-2.56s2.83-1.62,4.23-2.44,2.71-1.57,4.07-2.35l1.37-.79Z"/><path class="cls-5" d="M55.39,26a.18.18,0,0,0-.1-.17l-.81-.47L50.6,23.13,46,20.43,40.1,17l-3.85-2.2-3.85-2.2-2.17-1.28,0,13.56,2.39,1.46,2.82,1.73,2.2,1.33-3.89,2.24-2.9,1.68-6,3.45L19,40.16l-2.24,1.28c0,2.3,0,4.59,0,6.89,3.48,2,3.52,2,5.49,3.17l.43.24c1.2-.74,2.43-1.45,3.62-2.13l.52-.3,11.84-6.8,1.82-1,3.17-1.78v8.69l1.43.85c1.33.79,2.7,1.61,4.06,2.38.68.38,1.35.78,2,1.17,1.25.72,2.55,1.47,3.83,2.17l.44.24Z"/></g></g></svg>